<?xml version="1.0" encoding="UTF-8" standalone="no"?>
<svg
   viewBox="0 0 2733.3395 719.99997"
   height="720"
   width="2733.3396"
   xml:space="preserve"
   id="svg2"
   version="1.1"
   sodipodi:docname="kavak-logo-freelogovectors.net_.svg"
   inkscape:version="1.1 (c68e22c387, 2021-05-23)"
   xmlns:inkscape="http://www.inkscape.org/namespaces/inkscape"
   xmlns:sodipodi="http://sodipodi.sourceforge.net/DTD/sodipodi-0.dtd"
   xmlns="http://www.w3.org/2000/svg"
   xmlns:svg="http://www.w3.org/2000/svg"
   xmlns:rdf="http://www.w3.org/1999/02/22-rdf-syntax-ns#"
   xmlns:cc="http://creativecommons.org/ns#"
   xmlns:dc="http://purl.org/dc/elements/1.1/"><sodipodi:namedview
     id="namedview7"
     pagecolor="#ffffff"
     bordercolor="#666666"
     borderopacity="1.0"
     inkscape:pageshadow="2"
     inkscape:pageopacity="0.0"
     inkscape:pagecheckerboard="0"
     showgrid="false"
     fit-margin-top="0"
     fit-margin-left="0"
     fit-margin-right="0"
     fit-margin-bottom="0"
     inkscape:zoom="0.097499993"
     inkscape:cx="1215.3847"
     inkscape:cy="1769.2309"
     inkscape:window-width="1920"
     inkscape:window-height="1017"
     inkscape:window-x="1912"
     inkscape:window-y="-8"
     inkscape:window-maximized="1"
     inkscape:current-layer="svg2" /><metadata
     id="metadata8"><rdf:RDF><cc:Work
         rdf:about=""><dc:format>image/svg+xml</dc:format><dc:type
           rdf:resource="http://purl.org/dc/dcmitype/StillImage" /></cc:Work></rdf:RDF></metadata><defs
     id="defs6" /><g
     transform="matrix(3.7022373,0,0,-3.7022373,-114.22513,1840.8968)"
     id="g10"><path
       id="path12"
       style="fill:#000000;fill-opacity:1;fill-rule:nonzero;stroke:none"
       d="m 30.853,302.762 h 41.34 V 497.239 H 30.853 Z M 251.397,497.238 166.686,335.095 132.744,400 183.569,497.238 H 138.231 L 86.569,400 138.231,302.762 h 56.314 l 15.808,30.306 h 58.045 l -16.942,32.393 h -24.16 l 24.16,46.292 56.853,-108.991 H 352.99 L 251.396,497.238 Z m 197.162,0 -56.971,-108.991 -56.91,108.991 H 289.996 L 391.591,302.762 493.185,497.238 h -44.622 z m 167.871,0 V 335.274 L 531.838,497.238 430.244,302.762 h 44.682 l 56.97,108.99 24.159,-46.292 h -24.159 l -16.943,-32.393 h 58.045 l 15.809,-30.305 h 69.02 v 194.476 h -41.4 z m 107.38,0 L 672.146,400 723.81,302.762 h 45.337 L 718.321,400 l 50.826,97.238 z" /></g></svg>
